<svg width="190" height="76" viewBox="0 0 190 76" fill="none" xmlns="http://www.w3.org/2000/svg">
<g id="Frame" clip-path="url(#clip0_149_1033)">
<g id="Group">
<g id="Group_2">
<path id="Vector" d="M11.8875 10.1153C11.4595 10.1153 11.0555 10.1715 10.6736 10.284C10.2916 10.3965 9.95358 10.5772 9.65559 10.8302C9.35761 11.0833 9.12562 11.4006 8.95762 11.7821C8.78963 12.1657 8.70763 12.6175 8.70763 13.1417C8.70763 13.8706 8.97362 14.5936 9.5016 15.3125C10.0316 16.0315 10.6915 16.7785 11.4835 17.5537C12.2735 18.3289 13.1294 19.1321 14.0514 19.9635C14.9714 20.7949 15.8273 21.6725 16.6173 22.5983C17.4073 23.5221 18.0692 24.5081 18.5992 25.5544C19.1292 26.6006 19.3932 27.7212 19.3932 28.9161C19.3932 30.2616 19.1652 31.4565 18.7092 32.5027C18.2532 33.549 17.6013 34.4366 16.7553 35.1656C15.9073 35.8946 14.8854 36.4509 13.6854 36.8324C12.4855 37.216 11.1515 37.4068 9.68159 37.4068C8.39765 37.4068 7.2357 37.224 6.19374 36.8605C5.15178 36.4971 4.22782 36.0472 3.41786 35.5151C2.60789 34.9829 1.91592 34.4186 1.33994 33.8201C0.761968 33.2217 0.315987 32.6815 0 32.1955L0.975959 31.4946C1.21795 31.7758 1.52394 32.079 1.89792 32.4043C2.2699 32.7317 2.68389 33.0349 3.13987 33.3141C3.59585 33.5952 4.08383 33.8241 4.60581 34.0009C5.12578 34.1776 5.65576 34.2659 6.19574 34.2659C7.53568 34.2659 8.63364 33.9446 9.4896 33.3C10.3456 32.6554 10.7735 31.6975 10.7735 30.4283C10.7735 29.7194 10.5416 28.9844 10.0756 28.2293C9.6116 27.4722 9.02362 26.693 8.31765 25.8897C7.60968 25.0865 6.84771 24.2551 6.02975 23.3955C5.21178 22.536 4.44781 21.6484 3.74184 20.7327C3.03387 19.8169 2.4479 18.8751 1.98392 17.9031C1.51994 16.9332 1.28595 15.923 1.28595 14.8768C1.28595 13.6999 1.52394 12.6717 1.99792 11.7942C2.4719 10.9166 3.10387 10.1876 3.89584 9.60924C4.6858 9.03088 5.58776 8.5951 6.60172 8.30592C7.61568 8.01674 8.66164 7.87215 9.74159 7.87215C10.9875 7.87215 12.1235 7.98461 13.1454 8.20752C14.1674 8.43243 15.0474 8.77182 15.7833 9.22969C16.5173 9.68756 17.0853 10.2619 17.4853 10.9527C17.8852 11.6436 18.0852 12.4468 18.0852 13.3626C18.0852 14.0735 17.8532 14.688 17.3873 15.2121C16.9213 15.7343 16.2713 15.9973 15.4334 15.9973C14.6334 15.9973 14.0234 15.8246 13.6054 15.4792C13.1874 15.1338 12.9775 14.6619 12.9775 14.0634C12.9775 13.6718 13.0754 13.3626 13.2694 13.1397C13.4654 12.9147 13.6834 12.734 13.9254 12.5934C14.1674 12.4529 14.3854 12.3324 14.5814 12.2299C14.7774 12.1275 14.8754 11.991 14.8754 11.8243C14.8754 11.3022 14.5954 10.8865 14.0374 10.5772C13.4774 10.2699 12.7615 10.1153 11.8875 10.1153Z" fill="white"/>
<path id="Vector_2" d="M24.9189 20.6825V10.782C24.9189 10.541 24.9569 10.2559 25.0309 9.92252C25.1049 9.58916 25.2869 9.27588 25.5749 8.98068C25.8629 8.68547 26.2909 8.43043 26.8589 8.21756C27.4268 8.00469 28.2028 7.89825 29.1888 7.89825C30.1747 7.89825 30.9507 8.01473 31.5187 8.24567C32.0866 8.47662 32.5186 8.74973 32.8166 9.06301C33.1146 9.37629 33.3006 9.70162 33.3746 10.033C33.4486 10.3663 33.4866 10.6334 33.4866 10.8363V21.5761V22.6385V30.6512C33.4866 30.9123 33.5286 31.1793 33.6126 31.4505C33.6966 31.7216 33.8166 31.9686 33.9766 32.1935C34.1346 32.4184 34.3345 32.5991 34.5765 32.7397C34.8185 32.8803 35.1065 32.9506 35.4425 32.9506C35.9825 32.9506 36.5205 32.81 37.0604 32.5309C37.6004 32.2497 38.0924 31.9204 38.5384 31.5368C38.9844 31.1532 39.3703 30.7757 39.6963 30.4022C40.0223 30.0286 40.2583 29.7495 40.4083 29.5607V23.0281L40.3903 21.9617V10.782C40.3903 10.541 40.4283 10.2559 40.5023 9.92252C40.5763 9.58916 40.7583 9.27588 41.0463 8.98068C41.3343 8.68547 41.7622 8.43043 42.3302 8.21756C42.8982 8.00469 43.6742 7.89825 44.6601 7.89825C45.6461 7.89825 46.422 8.01473 46.99 8.24567C47.558 8.47662 47.99 8.74973 48.288 9.06301C48.5859 9.37629 48.7719 9.70162 48.8459 10.033C48.9199 10.3663 48.9579 10.6334 48.9579 10.8363V22.3011L48.9759 23.3674V32.081C48.9759 32.2497 48.9839 32.4305 49.0039 32.6273C49.0219 32.8241 49.0679 33.0108 49.1439 33.1875C49.2179 33.3643 49.3299 33.5089 49.4779 33.6213C49.6259 33.7338 49.8419 33.79 50.1199 33.79C50.4739 33.79 50.7899 33.6635 51.0678 33.4125C51.3478 33.1594 51.6078 32.9044 51.8498 32.6413L52.5198 33.2297C52.2418 33.6213 51.8918 34.0571 51.4738 34.533C51.0558 35.009 50.5479 35.4628 49.9539 35.8926C49.3579 36.3223 48.6799 36.6818 47.916 36.971C47.152 37.2602 46.288 37.4048 45.3201 37.4048C44.5021 37.4048 43.7901 37.2963 43.1862 37.0835C42.5822 36.8686 42.0702 36.5794 41.6502 36.2139C41.2323 35.8504 40.9203 35.4207 40.7163 34.9246C40.5123 34.4306 40.4083 33.9025 40.4083 33.3422V32.081C39.4783 33.0891 38.5004 33.9768 37.4784 34.7439C37.0324 35.0793 36.5585 35.4066 36.0545 35.7239C35.5525 36.0412 35.0305 36.3264 34.4925 36.5794C33.9526 36.8324 33.3946 37.0312 32.8186 37.1819C32.2426 37.3305 31.6647 37.4068 31.0887 37.4068C29.9727 37.4068 29.0188 37.206 28.2288 36.8043C27.4388 36.4027 26.8009 35.8745 26.3169 35.2219C25.8329 34.5692 25.4789 33.8302 25.2569 33.0088C25.0329 32.1875 24.9229 31.3661 24.9229 30.5427V21.9617V20.6825H24.9189Z" fill="white"/>
<path id="Vector_3" d="M65.2674 10.1153C64.8394 10.1153 64.4354 10.1715 64.0534 10.284C63.6714 10.3965 63.3335 10.5772 63.0355 10.8302C62.7375 11.0833 62.5055 11.4006 62.3375 11.7821C62.1695 12.1657 62.0875 12.6175 62.0875 13.1417C62.0875 13.8706 62.3535 14.5936 62.8815 15.3125C63.4115 16.0315 64.0714 16.7785 64.8634 17.5537C65.6534 18.3289 66.5093 19.1321 67.4313 19.9635C68.3513 20.7949 69.2072 21.6725 69.9972 22.5983C70.7871 23.5221 71.4491 24.5081 71.9791 25.5544C72.5091 26.6006 72.7731 27.7212 72.7731 28.9161C72.7731 30.2616 72.5451 31.4565 72.0891 32.5027C71.6331 33.549 70.9811 34.4366 70.1352 35.1656C69.2872 35.8946 68.2653 36.4509 67.0653 36.8324C65.8654 37.216 64.5314 37.4068 63.0615 37.4068C61.7775 37.4068 60.6156 37.224 59.5736 36.8605C58.5317 36.4971 57.6077 36.0472 56.7977 35.5151C55.9878 34.9829 55.2958 34.4186 54.7198 33.8201C54.1418 33.2217 53.6959 32.6815 53.3799 32.1955L54.3558 31.4946C54.5978 31.7758 54.9038 32.079 55.2778 32.4043C55.6498 32.7317 56.0638 33.0349 56.5197 33.3141C56.9757 33.5952 57.4637 33.8241 57.9857 34.0009C58.5057 34.1776 59.0356 34.2659 59.5756 34.2659C60.9156 34.2659 62.0135 33.9446 62.8695 33.3C63.7254 32.6554 64.1534 31.6975 64.1534 30.4283C64.1534 29.7194 63.9214 28.9844 63.4555 28.2293C62.9915 27.4722 62.4035 26.693 61.6975 25.8897C60.9896 25.0865 60.2276 24.2551 59.4096 23.3955C58.5917 22.536 57.8277 21.6484 57.1217 20.7327C56.4138 19.8169 55.8278 18.8751 55.3638 17.9031C54.8998 16.9332 54.6658 15.923 54.6658 14.8768C54.6658 13.6999 54.9038 12.6717 55.3778 11.7942C55.8518 10.9166 56.4838 10.1876 57.2757 9.60924C58.0657 9.03088 58.9676 8.5951 59.9816 8.30592C60.9956 8.01674 62.0415 7.87215 63.1215 7.87215C64.3674 7.87215 65.5034 7.98461 66.5253 8.20752C67.5473 8.43243 68.4272 8.77182 69.1632 9.22969C69.8972 9.68756 70.4652 10.2619 70.8651 10.9527C71.2651 11.6436 71.4651 12.4468 71.4651 13.3626C71.4651 14.0735 71.2331 14.688 70.7672 15.2121C70.3012 15.7343 69.6512 15.9973 68.8132 15.9973C68.0133 15.9973 67.4033 15.8246 66.9853 15.4792C66.5673 15.1338 66.3573 14.6619 66.3573 14.0634C66.3573 13.6718 66.4553 13.3626 66.6493 13.1397C66.8453 12.9147 67.0633 12.734 67.3053 12.5934C67.5473 12.4529 67.7653 12.3324 67.9613 12.2299C68.1573 12.1275 68.2553 11.991 68.2553 11.8243C68.2553 11.3022 67.9753 10.8865 67.4173 10.5772C66.8593 10.2699 66.1413 10.1153 65.2674 10.1153Z" fill="white"/>
<path id="Vector_4" d="M105.562 13.7863C106.268 12.7039 107.022 11.7219 107.822 10.8443C108.158 10.4708 108.52 10.1073 108.91 9.75183C109.3 9.39638 109.706 9.07908 110.124 8.79994C110.542 8.51879 110.976 8.29588 111.422 8.12719C111.868 7.95851 112.314 7.87617 112.762 7.87617C113.71 7.87617 114.454 8.16133 114.994 8.72966C115.534 9.29998 115.804 10.0992 115.804 11.1254C115.804 11.76 115.752 12.3725 115.65 12.9609C115.548 13.5493 115.348 14.2643 115.05 15.1037H114.268C114.156 14.5253 113.896 14.0434 113.486 13.6598C113.076 13.2762 112.482 13.0854 111.7 13.0854C111.124 13.0854 110.556 13.1939 109.998 13.4068C109.44 13.6216 108.896 13.8887 108.366 14.206C107.836 14.5233 107.334 14.8687 106.86 15.2423C106.386 15.6158 105.954 15.9712 105.562 16.3066V34.4909C105.562 34.7339 105.524 35.023 105.45 35.3604C105.376 35.6958 105.194 36.0151 104.906 36.3123C104.618 36.6115 104.19 36.8686 103.622 37.0835C103.054 37.2983 102.278 37.4048 101.292 37.4048C100.306 37.4048 99.5303 37.2883 98.9623 37.0553C98.3943 36.8224 97.9624 36.5473 97.6644 36.228C97.3664 35.9107 97.1804 35.5833 97.1064 35.248C97.0324 34.9106 96.9944 34.6415 96.9944 34.4346V12.8043C96.9944 12.2621 96.8684 11.7922 96.6184 11.3885C96.3684 10.9869 95.9445 10.7861 95.3485 10.7861C95.0325 10.7861 94.7625 10.8423 94.5385 10.9547C94.3145 11.0672 94.0725 11.2259 93.8125 11.4307L93.2266 10.7298C93.6545 10.3744 94.1325 10.0249 94.6625 9.67954C95.1925 9.33412 95.7645 9.03089 96.3784 8.76982C96.9924 8.50875 97.6524 8.29388 98.3603 8.12519C99.0663 7.9565 99.8103 7.87416 100.592 7.87416C101.392 7.87416 102.076 7.9826 102.642 8.19547C103.21 8.41035 103.674 8.68949 104.038 9.03691C104.4 9.38232 104.684 9.7699 104.888 10.1997C105.092 10.6294 105.246 11.0632 105.348 11.503C105.45 11.9428 105.51 12.3625 105.53 12.7641C105.552 13.1658 105.562 13.5052 105.562 13.7863Z" fill="white"/>
<path id="Vector_5" d="M126.908 10.1715C126.276 10.1715 125.69 10.2458 125.15 10.3965C124.61 10.5471 124.146 10.7318 123.754 10.9567C123.364 11.1817 123.056 11.4287 122.834 11.6998C122.61 11.9709 122.5 12.2279 122.5 12.4709C122.5 12.7521 122.644 12.9529 122.932 13.0734C123.22 13.1959 123.542 13.3345 123.894 13.4931C124.248 13.6518 124.568 13.8767 124.858 14.1659C125.146 14.455 125.29 14.8988 125.29 15.4973C125.29 15.8889 125.212 16.2504 125.054 16.5757C124.896 16.903 124.682 17.1922 124.412 17.4452C124.142 17.6963 123.826 17.8931 123.464 18.0337C123.102 18.1742 122.724 18.2445 122.334 18.2445C121.293 18.2445 120.451 17.8891 119.809 17.1802C119.167 16.4713 118.847 15.5274 118.847 14.3506C118.847 13.212 119.145 12.236 119.739 11.4227C120.335 10.6093 121.111 9.94261 122.068 9.41847C123.026 8.89633 124.11 8.50875 125.32 8.25572C126.528 8.00268 127.738 7.87817 128.948 7.87817C130.4 7.87817 131.784 8.03682 133.106 8.35412C134.426 8.67141 135.594 9.17748 136.608 9.86629C137.622 10.5571 138.432 11.4347 139.036 12.5011C139.64 13.5654 139.942 14.8547 139.942 16.3668V32.1975C139.942 32.3662 139.952 32.553 139.97 32.7578C139.988 32.9626 140.034 33.1494 140.11 33.3181C140.184 33.4868 140.296 33.6273 140.444 33.7378C140.592 33.8503 140.808 33.9065 141.086 33.9065C141.42 33.9065 141.732 33.78 142.02 33.5289C142.308 33.2759 142.564 33.0209 142.788 32.7578L143.486 33.3462C143.208 33.7378 142.872 34.1696 142.482 34.6355C142.092 35.1034 141.616 35.5412 141.058 35.9528C140.5 36.3645 139.848 36.7099 139.104 36.9891C138.36 37.2702 137.514 37.4088 136.564 37.4088C135.392 37.4088 134.35 37.0594 133.438 36.3585C132.526 35.6576 131.932 34.5792 131.652 33.1213C131.056 33.9246 130.438 34.5973 129.796 35.1395C129.154 35.6817 128.498 36.1195 127.828 36.4569C127.158 36.7923 126.484 37.0353 125.804 37.1859C125.124 37.3345 124.44 37.4108 123.752 37.4108C122.86 37.4108 121.994 37.2702 121.157 36.9911C120.319 36.7099 119.571 36.2681 118.911 35.6596C118.251 35.0532 117.721 34.2639 117.321 33.292C116.921 32.322 116.721 31.1352 116.721 29.7334C116.721 28.0345 117.055 26.6428 117.725 25.5584C118.395 24.476 119.273 23.5642 120.363 22.8272C121.451 22.0902 122.688 21.4596 124.074 20.9355C125.46 20.4134 126.878 19.8611 128.33 19.2828C129.41 18.853 130.196 18.2144 130.688 17.3629C131.18 16.5134 131.428 15.6399 131.428 14.7422C131.428 13.3606 131.024 12.254 130.214 11.4227C129.406 10.5872 128.302 10.1715 126.908 10.1715ZM131.344 22.4437C131.344 21.9778 131.194 21.6223 130.898 21.3793C130.6 21.1363 130.218 21.0158 129.754 21.0158C129.102 21.0158 128.484 21.1664 127.898 21.4637C127.312 21.7629 126.796 22.2027 126.35 22.781C125.904 23.3594 125.55 24.0743 125.29 24.9238C125.03 25.7733 124.9 26.7593 124.9 27.8799C124.9 28.9643 124.978 29.86 125.136 30.5688C125.294 31.2798 125.508 31.8441 125.778 32.2638C126.048 32.6835 126.36 32.9787 126.712 33.1454C127.066 33.3141 127.438 33.3964 127.828 33.3964C128.312 33.3964 128.768 33.2699 129.196 33.0189C129.624 32.7658 129.996 32.4445 130.312 32.0529C130.628 31.6613 130.88 31.2215 131.066 30.7355C131.252 30.2495 131.344 29.7656 131.344 29.2796V22.4437Z" fill="white"/>
<path id="Vector_6" d="M162.859 10.284H156.291V30.9906C156.291 31.9806 156.477 32.6674 156.849 33.051C157.221 33.4346 157.733 33.6253 158.383 33.6253C158.885 33.6253 159.331 33.4848 159.723 33.2056C160.113 32.9245 160.449 32.6072 160.727 32.2537C161.061 31.8621 161.349 31.4043 161.593 30.8801L162.459 31.2717C162.179 31.8702 161.849 32.5228 161.469 33.2337C161.087 33.9446 160.581 34.6033 159.949 35.2098C159.315 35.8163 158.521 36.3264 157.563 36.736C156.605 37.1457 155.401 37.3526 153.949 37.3526C153.131 37.3526 152.345 37.2301 151.591 36.9891C150.837 36.7461 150.167 36.3625 149.581 35.8404C148.995 35.3183 148.525 34.6636 148.173 33.8784C147.819 33.0932 147.643 32.1513 147.643 31.0488V10.284H144.518V8.26576C145.038 8.26576 145.764 8.13121 146.693 7.8601C147.623 7.589 148.577 7.13715 149.553 6.50055C150.529 5.86596 151.437 5.01649 152.273 3.95013C153.109 2.88579 153.705 1.56841 154.059 0H156.291V8.26576H162.835L162.859 10.284Z" fill="white"/>
<path id="Vector_7" d="M91.1264 10.284H84.5587V30.9906C84.5587 31.9806 84.7447 32.6674 85.1166 33.051C85.4886 33.4346 86.0006 33.6253 86.6506 33.6253C87.1525 33.6253 87.5985 33.4848 87.9905 33.2056C88.3805 32.9245 88.7165 32.6072 88.9945 32.2537C89.3285 31.8621 89.6164 31.4043 89.8604 30.8801L90.7264 31.2717C90.4464 31.8702 90.1164 32.5228 89.7364 33.2337C89.3545 33.9446 88.8485 34.6033 88.2165 35.2098C87.5825 35.8163 86.7886 36.3264 85.8306 36.736C84.8726 37.1457 83.6687 37.3526 82.2168 37.3526C81.3988 37.3526 80.6128 37.2301 79.8589 36.9891C79.1049 36.7461 78.4349 36.3625 77.8489 35.8404C77.263 35.3183 76.793 34.6636 76.441 33.8784C76.087 33.0932 75.911 32.1513 75.911 31.0488V10.284H72.7852V8.26576C73.3051 8.26576 74.0311 8.13121 74.9611 7.8601C75.891 7.589 76.845 7.13715 77.8209 6.50055C78.7969 5.86596 79.7049 5.01649 80.5408 3.95013C81.3768 2.88579 81.9728 1.56841 82.3268 0H84.5587V8.26576H91.1024L91.1264 10.284Z" fill="white"/>
<path id="Vector_8" d="M164.161 22.6124C164.161 20.1644 164.513 18.0216 165.221 16.1821C165.927 14.3426 166.871 12.8063 168.053 11.5733C169.235 10.3402 170.607 9.41647 172.169 8.79995C173.731 8.18343 175.369 7.87617 177.081 7.87617C178.793 7.87617 180.428 8.16134 181.992 8.72966C183.554 9.29999 184.926 10.1736 186.108 11.3504C187.29 12.5272 188.234 14.0173 188.94 15.8186C189.646 17.622 190 19.7547 190 22.2208C190 24.6688 189.646 26.8356 188.94 28.7213C188.232 30.609 187.288 32.1955 186.108 33.4848C184.926 34.774 183.554 35.75 181.992 36.4127C180.43 37.0754 178.793 37.4068 177.081 37.4068C175.369 37.4068 173.733 37.0935 172.169 36.469C170.607 35.8424 169.235 34.9146 168.053 33.6816C166.871 32.4485 165.927 30.9082 165.221 29.0587C164.513 27.2071 164.161 25.0584 164.161 22.6124ZM181.322 22.3312C181.322 20.8371 181.27 19.3932 181.168 18.0015C181.066 16.6098 180.866 15.3728 180.568 14.2884C180.27 13.2059 179.842 12.3404 179.284 11.6958C178.727 11.0511 177.991 10.7298 177.081 10.7298C176.169 10.7298 175.435 11.0712 174.877 11.752C174.319 12.4348 173.891 13.3305 173.593 14.443C173.295 15.5555 173.099 16.8207 173.007 18.2385C172.913 19.6583 172.867 21.1163 172.867 22.6104C172.867 24.1045 172.913 25.5664 173.007 26.9963C173.101 28.4261 173.295 29.6993 173.593 30.8199C173.891 31.9405 174.319 32.8421 174.877 33.5229C175.435 34.2057 176.169 34.5451 177.081 34.5451C177.993 34.5451 178.727 34.1896 179.284 33.4808C179.842 32.7719 180.27 31.838 180.568 30.6793C180.866 29.5206 181.066 28.2132 181.168 26.7573C181.27 25.3013 181.322 23.8253 181.322 22.3312Z" fill="white"/>
</g>
<g id="Group_3">
<path id="Vector_9" d="M62.3032 52.1329H56.5874V70.1525C56.5874 71.014 56.7494 71.6125 57.0734 71.9438C57.3974 72.2772 57.8414 72.4439 58.4093 72.4439C58.8473 72.4439 59.2353 72.3214 59.5753 72.0784C59.9153 71.8354 60.2073 71.5583 60.4493 71.249C60.7412 70.9076 60.9912 70.51 61.2012 70.0541L61.9532 70.3955C61.7092 70.9156 61.4232 71.484 61.0912 72.1025C60.7592 72.721 60.3173 73.2934 59.7673 73.8215C59.2173 74.3497 58.5253 74.7935 57.6914 75.1509C56.8574 75.5084 55.8094 75.6871 54.5475 75.6871C53.8355 75.6871 53.1516 75.5807 52.4956 75.3698C51.8396 75.159 51.2576 74.8256 50.7477 74.3698C50.2377 73.9159 49.8277 73.3456 49.5217 72.6628C49.2137 71.98 49.0597 71.1586 49.0597 70.2007V52.1329H46.3398V50.3778C46.7918 50.3778 47.4238 50.2593 48.2338 50.0243C49.0437 49.7894 49.8737 49.3937 50.7237 48.8415C51.5736 48.2892 52.3636 47.5502 53.0916 46.6224C53.8195 45.6966 54.3375 44.55 54.6455 43.1844H56.5874V50.3778H62.2832L62.3032 52.1329Z" fill="white"/>
<path id="Vector_10" d="M10.4815 52.0667C9.92949 52.0667 9.41751 52.1329 8.94553 52.2615C8.47355 52.392 8.06757 52.5547 7.72758 52.7515C7.3856 52.9463 7.11761 53.1631 6.92362 53.4001C6.72963 53.6371 6.63163 53.862 6.63163 54.0729C6.63163 54.3179 6.75763 54.4926 7.00961 54.599C7.2616 54.7054 7.54159 54.8279 7.84958 54.9665C8.15757 55.1051 8.43755 55.3019 8.68954 55.5549C8.94153 55.8079 9.06753 56.1955 9.06753 56.7177C9.06753 57.0611 8.99753 57.3743 8.86154 57.6595C8.72354 57.9447 8.53555 58.1977 8.30156 58.4186C8.06557 58.6395 7.78958 58.8102 7.47359 58.9327C7.15761 59.0552 6.82762 59.1155 6.48764 59.1155C5.57767 59.1155 4.84171 58.8062 4.28173 58.1857C3.72175 57.5651 3.44177 56.7418 3.44177 55.7136C3.44177 54.7195 3.70175 53.866 4.22173 53.1571C4.74171 52.4482 5.41968 51.8638 6.25565 51.408C7.09161 50.9521 8.03757 50.6127 9.09553 50.3918C10.1515 50.1709 11.2074 50.0605 12.2634 50.0605C13.5313 50.0605 14.7413 50.199 15.8952 50.4762C17.0492 50.7533 18.0671 51.1931 18.9531 51.7976C19.8391 52.4 20.545 53.1672 21.073 54.097C21.601 55.0268 21.865 56.1514 21.865 57.4748V71.2992C21.865 71.4458 21.873 71.6085 21.889 71.7892C21.905 71.97 21.945 72.1326 22.011 72.2792C22.075 72.4258 22.173 72.5483 22.303 72.6467C22.433 72.7451 22.619 72.7933 22.8629 72.7933C23.1549 72.7933 23.4269 72.6829 23.6789 72.462C23.9309 72.2411 24.1549 72.0182 24.3489 71.7892L24.9589 72.3033C24.7149 72.6467 24.4229 73.0202 24.0809 73.4299C23.7389 73.8376 23.3249 74.2212 22.8389 74.5806C22.351 74.9401 21.783 75.2413 21.133 75.4863C20.483 75.7313 19.7451 75.8538 18.9151 75.8538C17.8912 75.8538 16.9812 75.5486 16.1852 74.9361C15.3893 74.3236 14.8693 73.3817 14.6253 72.1105C14.1053 72.8114 13.5653 73.3998 13.0054 73.8717C12.4454 74.3457 11.8714 74.7272 11.2874 75.0224C10.7035 75.3156 10.1135 75.5265 9.52151 75.659C8.92753 75.7896 8.33156 75.8558 7.72958 75.8558C6.94962 75.8558 6.19365 75.7333 5.46368 75.4883C4.73171 75.2433 4.07774 74.8557 3.50176 74.3256C2.92579 73.7954 2.46181 73.1066 2.11382 72.2571C1.76384 71.4097 1.58984 70.3734 1.58984 69.1484C1.58984 67.6644 1.88183 66.4494 2.46781 65.5035C3.05378 64.5577 3.81975 63.7624 4.77171 63.1178C5.72167 62.4732 6.80162 61.9229 8.01357 61.4671C9.22352 61.0112 10.4635 60.5292 11.7294 60.0232C12.6714 59.6476 13.3573 59.0893 13.7893 58.3463C14.2193 57.6053 14.4353 56.8422 14.4353 56.059C14.4353 54.852 14.0813 53.8861 13.3753 53.1591C12.6614 52.4301 11.6994 52.0667 10.4815 52.0667ZM14.3553 62.7844C14.3553 62.3768 14.2253 62.0675 13.9653 61.8546C13.7053 61.6438 13.3713 61.5353 12.9654 61.5353C12.3974 61.5353 11.8574 61.6659 11.3454 61.9269C10.8335 62.188 10.3835 62.5716 9.99349 63.0776C9.60351 63.5837 9.29552 64.2083 9.06753 64.9493C8.83954 65.6923 8.72554 66.5518 8.72554 67.5318C8.72554 68.4777 8.79354 69.2609 8.93153 69.8794C9.06953 70.5 9.25552 70.994 9.49151 71.3595C9.7275 71.727 9.99949 71.984 10.3075 72.1306C10.6155 72.2772 10.9414 72.3515 11.2814 72.3515C11.7034 72.3515 12.1014 72.2411 12.4754 72.0222C12.8494 71.8013 13.1734 71.5201 13.4513 71.1787C13.7273 70.8353 13.9473 70.4538 14.1093 70.028C14.2713 69.6043 14.3533 69.1806 14.3533 68.7568V62.7844H14.3553Z" fill="white"/>
<path id="Vector_11" d="M36.0186 55.2236C36.6365 54.2777 37.2945 53.4222 37.9925 52.6551C38.2845 52.3297 38.6025 52.0104 38.9424 51.7012C39.2844 51.3919 39.6364 51.1128 40.0024 50.8698C40.3684 50.6248 40.7464 50.43 41.1364 50.2834C41.5263 50.1368 41.9163 50.0625 42.3063 50.0625C43.1343 50.0625 43.7842 50.3115 44.2562 50.8095C44.7262 51.3076 44.9622 52.0044 44.9622 52.9021C44.9622 53.4563 44.9162 53.9905 44.8282 54.5046C44.7382 55.0187 44.5642 55.6433 44.3042 56.3763H43.6223C43.5243 55.8722 43.2963 55.4505 42.9403 55.1171C42.5823 54.7838 42.0623 54.6151 41.3803 54.6151C40.8764 54.6151 40.3824 54.7095 39.8944 54.8962C39.4064 55.083 38.9325 55.3159 38.4685 55.5931C38.0045 55.8702 37.5665 56.1714 37.1525 56.4988C36.7385 56.8261 36.3606 57.1354 36.0186 57.4286V73.3094C36.0186 73.5203 35.9866 73.7733 35.9206 74.0685C35.8546 74.3617 35.6966 74.6409 35.4446 74.8999C35.1926 75.161 34.8186 75.3859 34.3246 75.5727C33.8287 75.7594 33.1507 75.8538 32.2907 75.8538C31.4288 75.8538 30.7508 75.7514 30.2568 75.5486C29.7608 75.3437 29.3828 75.1048 29.1229 74.8256C28.8629 74.5485 28.7009 74.2633 28.6349 73.9701C28.5689 73.6769 28.5369 73.44 28.5369 73.2612V54.3721C28.5369 53.8982 28.4269 53.4865 28.2089 53.137C27.9889 52.7876 27.6189 52.6109 27.1009 52.6109C26.825 52.6109 26.589 52.6591 26.395 52.7575C26.201 52.8559 25.989 52.9945 25.761 53.1732L25.249 52.5607C25.623 52.2514 26.041 51.9442 26.505 51.6429C26.967 51.3417 27.4669 51.0766 28.0029 50.8477C28.5389 50.6188 29.1149 50.432 29.7328 50.2854C30.3508 50.1388 31.0008 50.0645 31.6828 50.0645C32.3807 50.0645 32.9787 50.1589 33.4747 50.3456C33.9707 50.5324 34.3766 50.7774 34.6926 51.0806C35.0086 51.3819 35.2566 51.7213 35.4366 52.0968C35.6146 52.4723 35.7486 52.8519 35.8386 53.2354C35.9286 53.619 35.9806 53.9865 35.9966 54.3359C36.0106 54.6814 36.0186 54.9786 36.0186 55.2236Z" fill="white"/>
<path id="Vector_12" d="M95.3064 52.0185C94.9324 52.0185 94.5784 52.0667 94.2464 52.1651C93.9124 52.2635 93.6164 52.4221 93.3564 52.641C93.0965 52.8619 92.8945 53.139 92.7465 53.4724C92.6005 53.8058 92.5265 54.2014 92.5265 54.6593C92.5265 55.2959 92.7585 55.9284 93.2205 56.555C93.6844 57.1836 94.2604 57.8362 94.9504 58.513C95.6404 59.1898 96.3883 59.8906 97.1923 60.6176C97.9963 61.3446 98.7442 62.1097 99.4342 62.919C100.124 63.7263 100.702 64.5878 101.164 65.4995C101.628 66.4133 101.858 67.3913 101.858 68.4355C101.858 69.6103 101.658 70.6546 101.262 71.5683C100.864 72.4821 100.296 73.2572 99.5562 73.8938C98.8162 74.5304 97.9243 75.0144 96.8763 75.3498C95.8283 75.6851 94.6624 75.8518 93.3805 75.8518C92.2585 75.8518 91.2445 75.6932 90.3346 75.3739C89.4246 75.0566 88.6166 74.665 87.9107 74.1991C87.2047 73.7352 86.5987 73.2412 86.0948 72.719C85.5908 72.1969 85.2008 71.725 84.9248 71.2992L85.7768 70.6867C85.9868 70.9317 86.2567 71.1968 86.5807 71.482C86.9047 71.7671 87.2667 72.0322 87.6647 72.2772C88.0627 72.5222 88.4887 72.721 88.9446 72.8777C89.3986 73.0323 89.8626 73.1106 90.3346 73.1106C91.5045 73.1106 92.4625 72.8295 93.2105 72.2672C93.9584 71.7049 94.3324 70.8695 94.3324 69.7589C94.3324 69.1384 94.1284 68.4998 93.7224 67.8391C93.3165 67.1784 92.8045 66.4976 92.1865 65.7968C91.5685 65.0959 90.9025 64.3689 90.1886 63.6179C89.4726 62.8688 88.8066 62.0936 88.1907 61.2924C87.5727 60.4931 87.0607 59.6697 86.6547 58.8223C86.2487 57.9748 86.0448 57.0932 86.0448 56.1795C86.0448 55.1513 86.2507 54.2556 86.6667 53.4885C87.0807 52.7213 87.6327 52.0847 88.3227 51.5807C89.0126 51.0746 89.8006 50.6951 90.6866 50.442C91.5725 50.189 92.4865 50.0625 93.4284 50.0625C94.5164 50.0625 95.5084 50.1609 96.4003 50.3557C97.2943 50.5505 98.0623 50.8497 98.7042 51.2493C99.3462 51.649 99.8402 52.151 100.19 52.7535C100.54 53.3579 100.714 54.0588 100.714 54.8581C100.714 55.4786 100.51 56.0168 100.104 56.4727C99.6982 56.9305 99.1302 57.1575 98.3982 57.1575C97.7003 57.1575 97.1683 57.0068 96.8023 56.7056C96.4363 56.4044 96.2543 55.9927 96.2543 55.4706C96.2543 55.1272 96.3403 54.8581 96.5103 54.6633C96.6803 54.4685 96.8723 54.3078 97.0823 54.1873C97.2923 54.0648 97.4843 53.9584 97.6543 53.868C97.8243 53.7777 97.9103 53.6612 97.9103 53.5126C97.9103 53.0567 97.6663 52.6932 97.1783 52.4241C96.6943 52.153 96.0703 52.0185 95.3064 52.0185Z" fill="white"/>
<path id="Vector_13" d="M112.997 52.0667C112.445 52.0667 111.933 52.1329 111.461 52.2615C110.989 52.392 110.583 52.5547 110.243 52.7515C109.901 52.9463 109.633 53.1631 109.439 53.4001C109.245 53.6371 109.147 53.862 109.147 54.0729C109.147 54.3179 109.273 54.4926 109.525 54.599C109.777 54.7054 110.057 54.8279 110.365 54.9665C110.673 55.1051 110.953 55.3019 111.205 55.5549C111.457 55.8079 111.583 56.1955 111.583 56.7177C111.583 57.0611 111.513 57.3743 111.377 57.6595C111.239 57.9447 111.051 58.1977 110.817 58.4186C110.581 58.6395 110.305 58.8102 109.989 58.9327C109.673 59.0552 109.343 59.1155 109.003 59.1155C108.093 59.1155 107.357 58.8062 106.797 58.1857C106.237 57.5651 105.957 56.7418 105.957 55.7136C105.957 54.7195 106.217 53.866 106.737 53.1571C107.257 52.4482 107.935 51.8638 108.771 51.408C109.607 50.9521 110.553 50.6127 111.611 50.3918C112.667 50.1709 113.723 50.0605 114.779 50.0605C116.047 50.0605 117.257 50.199 118.411 50.4762C119.565 50.7533 120.583 51.1931 121.469 51.7976C122.355 52.4 123.061 53.1672 123.589 54.097C124.117 55.0268 124.381 56.1514 124.381 57.4748V71.2992C124.381 71.4458 124.389 71.6085 124.405 71.7892C124.421 71.97 124.461 72.1326 124.527 72.2792C124.591 72.4258 124.689 72.5483 124.819 72.6467C124.949 72.7451 125.135 72.7933 125.379 72.7933C125.671 72.7933 125.943 72.6829 126.195 72.462C126.447 72.2411 126.671 72.0182 126.865 71.7892L127.474 72.3033C127.231 72.6467 126.939 73.0202 126.597 73.4299C126.255 73.8376 125.841 74.2212 125.355 74.5806C124.867 74.9401 124.299 75.2413 123.649 75.4863C122.999 75.7313 122.261 75.8538 121.431 75.8538C120.407 75.8538 119.497 75.5486 118.701 74.9361C117.905 74.3236 117.385 73.3817 117.141 72.1105C116.621 72.8114 116.081 73.3998 115.521 73.8717C114.961 74.3457 114.387 74.7272 113.803 75.0224C113.219 75.3156 112.629 75.5265 112.037 75.659C111.443 75.7896 110.847 75.8558 110.245 75.8558C109.465 75.8558 108.709 75.7333 107.979 75.4883C107.247 75.2433 106.593 74.8557 106.017 74.3256C105.441 73.7954 104.977 73.1066 104.629 72.2571C104.279 71.4097 104.105 70.3734 104.105 69.1484C104.105 67.6644 104.397 66.4494 104.983 65.5035C105.569 64.5577 106.335 63.7624 107.287 63.1178C108.237 62.4732 109.317 61.9229 110.529 61.4671C111.739 61.0112 112.979 60.5292 114.245 60.0232C115.187 59.6476 115.873 59.0893 116.305 58.3463C116.735 57.6053 116.951 56.8422 116.951 56.059C116.951 54.852 116.597 53.8861 115.891 53.1591C115.177 52.4301 114.215 52.0667 112.997 52.0667ZM116.871 62.7844C116.871 62.3768 116.741 62.0675 116.481 61.8546C116.221 61.6438 115.887 61.5353 115.481 61.5353C114.913 61.5353 114.373 61.6659 113.861 61.9269C113.349 62.188 112.899 62.5716 112.509 63.0776C112.119 63.5837 111.811 64.2083 111.583 64.9493C111.355 65.6923 111.241 66.5518 111.241 67.5318C111.241 68.4777 111.309 69.2609 111.447 69.8794C111.585 70.5 111.771 70.994 112.007 71.3595C112.243 71.727 112.515 71.984 112.823 72.1306C113.131 72.2772 113.457 72.3515 113.797 72.3515C114.219 72.3515 114.617 72.2411 114.991 72.0222C115.365 71.8013 115.689 71.5201 115.967 71.1787C116.243 70.8353 116.463 70.4538 116.625 70.028C116.787 69.6043 116.869 69.1806 116.869 68.7568V62.7844H116.871Z" fill="white"/>
<path id="Vector_14" d="M164.707 52.0667C164.155 52.0667 163.643 52.1329 163.171 52.2615C162.699 52.392 162.293 52.5547 161.953 52.7515C161.611 52.9463 161.343 53.1631 161.149 53.4001C160.955 53.6371 160.857 53.862 160.857 54.0729C160.857 54.3179 160.983 54.4926 161.235 54.599C161.487 54.7054 161.767 54.8279 162.075 54.9665C162.383 55.1051 162.663 55.3019 162.915 55.5549C163.167 55.8079 163.293 56.1955 163.293 56.7177C163.293 57.0611 163.223 57.3743 163.087 57.6595C162.949 57.9447 162.761 58.1977 162.527 58.4186C162.291 58.6395 162.015 58.8102 161.699 58.9327C161.383 59.0552 161.053 59.1155 160.713 59.1155C159.803 59.1155 159.067 58.8062 158.507 58.1857C157.947 57.5651 157.667 56.7418 157.667 55.7136C157.667 54.7195 157.927 53.866 158.447 53.1571C158.967 52.4482 159.645 51.8638 160.481 51.408C161.317 50.9521 162.263 50.6127 163.321 50.3918C164.377 50.1709 165.433 50.0605 166.489 50.0605C167.757 50.0605 168.967 50.199 170.121 50.4762C171.275 50.7533 172.293 51.1931 173.179 51.7976C174.065 52.4 174.771 53.1672 175.299 54.097C175.827 55.0268 176.091 56.1514 176.091 57.4748V71.2992C176.091 71.4458 176.099 71.6085 176.115 71.7892C176.131 71.97 176.171 72.1326 176.237 72.2792C176.301 72.4258 176.399 72.5483 176.529 72.6467C176.659 72.7451 176.845 72.7933 177.089 72.7933C177.381 72.7933 177.653 72.6829 177.905 72.462C178.156 72.2411 178.38 72.0182 178.574 71.7892L179.184 72.3033C178.94 72.6467 178.648 73.0202 178.306 73.4299C177.965 73.8376 177.551 74.2212 177.065 74.5806C176.577 74.9401 176.009 75.2413 175.359 75.4863C174.709 75.7313 173.971 75.8538 173.141 75.8538C172.117 75.8538 171.207 75.5486 170.411 74.9361C169.615 74.3236 169.095 73.3817 168.851 72.1105C168.331 72.8114 167.791 73.3998 167.231 73.8717C166.671 74.3457 166.097 74.7272 165.513 75.0224C164.929 75.3156 164.339 75.5265 163.747 75.659C163.153 75.7896 162.557 75.8558 161.955 75.8558C161.175 75.8558 160.419 75.7333 159.689 75.4883C158.957 75.2433 158.303 74.8557 157.727 74.3256C157.151 73.7954 156.687 73.1066 156.339 72.2571C155.989 71.4097 155.815 70.3734 155.815 69.1484C155.815 67.6644 156.107 66.4494 156.693 65.5035C157.277 64.5577 158.045 63.7624 158.997 63.1178C159.947 62.4732 161.027 61.9229 162.239 61.4671C163.449 61.0112 164.689 60.5292 165.955 60.0232C166.897 59.6476 167.583 59.0893 168.015 58.3463C168.445 57.6053 168.661 56.8422 168.661 56.059C168.661 54.852 168.307 53.8861 167.601 53.1591C166.887 52.4301 165.925 52.0667 164.707 52.0667ZM168.581 62.7844C168.581 62.3768 168.451 62.0675 168.191 61.8546C167.931 61.6438 167.597 61.5353 167.191 61.5353C166.623 61.5353 166.083 61.6659 165.571 61.9269C165.059 62.188 164.609 62.5716 164.219 63.0776C163.829 63.5837 163.521 64.2083 163.293 64.9493C163.065 65.6923 162.951 66.5518 162.951 67.5318C162.951 68.4777 163.019 69.2609 163.157 69.8794C163.295 70.5 163.481 70.994 163.717 71.3595C163.953 71.727 164.225 71.984 164.533 72.1306C164.841 72.2772 165.167 72.3515 165.507 72.3515C165.929 72.3515 166.327 72.2411 166.701 72.0222C167.075 71.8013 167.399 71.5201 167.677 71.1787C167.953 70.8353 168.173 70.4538 168.335 70.028C168.497 69.6043 168.579 69.1806 168.579 68.7568V62.7844H168.581Z" fill="white"/>
<path id="Vector_15" d="M190 73.3054C190 73.5163 189.964 73.7693 189.89 74.0645C189.816 74.3577 189.646 74.6369 189.378 74.8959C189.11 75.157 188.72 75.3819 188.208 75.5687C187.696 75.7554 187.01 75.8498 186.148 75.8498C185.286 75.8498 184.612 75.7474 184.126 75.5446C183.638 75.3397 183.278 75.1007 183.042 74.8216C182.806 74.5445 182.66 74.2593 182.604 73.9661C182.546 73.6729 182.518 73.4359 182.518 73.2572V48.8937C182.518 48.4218 182.408 48.0081 182.19 47.6587C181.97 47.3072 181.6 47.1325 181.082 47.1325C180.806 47.1325 180.566 47.1787 180.364 47.2671C180.16 47.3574 179.946 47.492 179.718 47.6707L179.23 47.0843C179.604 46.7751 180.018 46.4698 180.472 46.1666C180.926 45.8653 181.426 45.6003 181.97 45.3713C182.514 45.1424 183.094 44.9556 183.712 44.809C184.33 44.6624 184.98 44.5881 185.662 44.5881C186.718 44.5881 187.538 44.7307 188.124 45.0159C188.708 45.301 189.14 45.6525 189.416 46.0682C189.692 46.4839 189.858 46.9237 189.916 47.3896C189.972 47.8535 190.002 48.2671 190.002 48.6246V73.3054H190Z" fill="white"/>
<path id="Vector_16" d="M84.0623 70.4739L83.5484 69.9778C83.1584 70.3212 82.7684 70.6425 82.3784 70.9438C81.9884 71.245 81.5825 71.5121 81.1605 71.739C80.7385 71.968 80.2825 72.1467 79.7965 72.2772C79.3085 72.4078 78.7806 72.472 78.2126 72.472C77.4006 72.472 76.6507 72.4519 75.9687 72.1909C75.2867 71.9298 74.5707 71.5683 74.0128 71.1245C72.5248 69.9457 71.6829 68.805 71.5369 67.7487C71.0329 64.1159 74.3588 62.0414 76.6667 60.6738C77.2566 60.3244 77.8146 60.0051 78.3426 59.6978C78.8806 59.3866 79.3845 59.0874 79.8405 58.7921L80.2965 58.521C81.0285 58.0652 81.6124 57.531 82.0504 56.9185C82.4884 56.306 82.7084 55.6192 82.7084 54.8521C82.7084 54.7697 82.6984 54.6894 82.6944 54.6091L82.6644 54.2837L82.6604 54.2516C82.6604 54.2596 82.6604 54.2657 82.6604 54.2737C82.5984 53.8459 82.4704 53.4302 82.2684 53.0306C81.9764 52.4522 81.5325 51.9422 80.9405 51.5024C80.9305 51.4943 80.9165 51.4883 80.9065 51.4803C80.3185 51.0505 79.5885 50.7071 78.7106 50.4501C77.8166 50.189 76.7687 50.0585 75.5667 50.0585C74.6567 50.0585 73.7108 50.185 72.7288 50.438C71.7449 50.6911 70.7829 51.0666 69.8409 51.5646C68.899 52.0627 68.001 52.6872 67.1491 53.4363C66.2971 54.1873 65.5491 55.0589 64.9072 56.055C64.2652 57.051 63.7572 58.1676 63.3832 59.4067C63.0092 60.6457 62.8232 62.0093 62.8232 63.4933C62.8232 64.5456 62.9072 65.5297 63.0712 66.4454C64.9132 62.6579 67.741 59.5352 70.7289 57.284C72.5228 55.9325 74.3708 54.8942 76.1007 54.2155C77.5746 53.6371 78.9626 53.3178 80.1505 53.2897C78.8586 53.5889 77.5706 54.097 76.3207 54.7777C74.2168 55.9224 72.2168 57.5631 70.4609 59.5492C67.759 62.6037 65.6411 66.4735 64.6372 70.6104C64.9832 71.1888 65.3651 71.725 65.7851 72.211C65.8191 72.2491 65.8511 72.2853 65.8851 72.3214C65.9971 72.4439 66.1031 72.5764 66.2231 72.6929C66.7451 73.211 67.307 73.6609 67.907 74.0485C68.509 74.4421 69.149 74.7694 69.8289 75.0305C71.1689 75.5446 72.5468 75.8016 73.9588 75.8016C75.3727 75.8016 76.6307 75.6269 77.7366 75.2755C78.8406 74.924 79.8085 74.4842 80.6365 73.9541C81.4645 73.4239 82.1724 72.8576 82.7564 72.2531C83.1264 71.8716 83.4564 71.5081 83.7404 71.1647C83.9044 70.9659 84.0563 70.7751 84.1923 70.5903L84.0623 70.4739Z" fill="white"/>
<path id="Vector_17" d="M152.572 62.8808C152.572 60.4509 152.418 58.4146 152.11 56.7759C151.802 55.1372 151.354 53.8198 150.77 52.8238C150.186 51.8297 149.466 51.1188 148.614 50.6951C147.762 50.2713 146.782 50.0585 145.678 50.0585C145.174 50.0585 144.682 50.1247 144.204 50.2533C143.724 50.3838 143.27 50.5585 142.84 50.7794C142.41 51.0003 142.004 51.2493 141.622 51.5265C141.24 51.8036 140.894 52.0888 140.586 52.382C139.822 53.0668 139.14 53.8419 138.54 54.7075C138.54 54.348 138.512 53.9042 138.454 53.374C138.398 52.8438 138.23 52.3338 137.954 51.8438C137.678 51.3538 137.248 50.934 136.662 50.5846C136.078 50.2352 135.256 50.0585 134.2 50.0585C133.518 50.0585 132.868 50.1308 132.25 50.2794C131.632 50.426 131.056 50.6147 130.52 50.8417C129.985 51.0706 129.485 51.3357 129.023 51.6369C128.559 51.9381 128.141 52.2454 127.767 52.5547L128.279 53.1672C128.507 52.9884 128.717 52.8479 128.913 52.7515C129.107 52.6531 129.343 52.6049 129.619 52.6049C130.139 52.6049 130.508 52.7796 130.726 53.131C130.946 53.4825 131.054 53.8941 131.054 54.3661V73.2552C131.054 73.436 131.086 73.6709 131.152 73.9641C131.216 74.2573 131.38 74.5425 131.64 74.8196C131.9 75.0967 132.278 75.3377 132.772 75.5426C133.268 75.7474 133.946 75.8478 134.808 75.8478C135.668 75.8478 136.346 75.7534 136.842 75.5667C137.338 75.3799 137.71 75.151 137.962 74.8819C138.214 74.6128 138.372 74.3276 138.438 74.0264C138.502 73.7251 138.536 73.4681 138.536 73.2552V56.9105C138.666 56.7478 138.824 56.5028 139.012 56.1775C139.198 55.8521 139.426 55.5248 139.694 55.1995C139.962 54.8741 140.278 54.585 140.644 54.3319C141.01 54.0789 141.428 53.9524 141.898 53.9524C142.288 53.9524 142.67 54.0548 143.044 54.2576C143.418 54.4625 143.758 54.8862 144.068 55.5308C144.376 56.1755 144.624 57.1133 144.812 58.3443C144.998 59.5753 145.092 63.2945 145.092 63.2945V73.1026C145.092 73.2833 145.12 73.5183 145.178 73.8115C145.234 74.1047 145.38 74.3898 145.616 74.667C145.852 74.9441 146.212 75.1851 146.7 75.3899C147.188 75.5928 147.862 75.6952 148.722 75.6952C149.582 75.6952 150.27 75.6008 150.782 75.414C151.294 75.2273 151.684 75.0023 151.952 74.7413C152.22 74.4802 152.39 74.2031 152.464 73.9099C152.538 73.6167 152.574 73.3637 152.574 73.1528V62.9572C152.57 62.931 152.572 62.9069 152.572 62.8808Z" fill="white"/>
</g>
</g>
</g>
<defs>
<clipPath id="clip0_149_1033">
<rect width="190" height="75.8498" fill="white"/>
</clipPath>
</defs>
</svg>
